<svg xmlns="http://www.w3.org/2000/svg" xmlns:xlink="http://www.w3.org/1999/xlink" version="1.1" x="0px" y="0px" viewBox="0 0 56 56" xml:space="preserve"><path d="M10.1875,33.75h35.625C49.7753906,33.75,53,30.5253906,53,26.5625c0-3.6708984-2.7666016-6.7080078-6.3242188-7.1357422  C46.7246094,19.0302734,46.75,18.6376953,46.75,18.25c0-5.9472656-5.3066406-10.7353516-11.4023438-9.75  c-0.0115967-0.0266113-0.0283203-0.0498047-0.0401611-0.0761719c-0.1713867-0.3825684-0.3624878-0.7524414-0.5802002-1.1025391  c-0.0092773-0.0148926-0.0198975-0.0285645-0.0292358-0.043457c-0.2199707-0.348999-0.4625854-0.6799316-0.7244873-0.993042  c-0.0170898-0.0203857-0.0324707-0.0423584-0.0497437-0.0626221c-0.258667-0.303833-0.5394287-0.5856934-0.8337402-0.8518066  c-0.0386963-0.0349121-0.0755005-0.0714111-0.1147461-0.1057129c-0.2886353-0.2521973-0.5941772-0.4831543-0.9118652-0.6970215  c-0.0524292-0.0352783-0.104187-0.0708008-0.1573486-0.1051025c-0.3182373-0.2047119-0.6491089-0.3892822-0.991394-0.5535889  c-0.0582886-0.0280762-0.1167603-0.0546875-0.1757202-0.081543c-0.3484497-0.1582031-0.706543-0.296875-1.0751343-0.4111328  c-0.0548096-0.0169678-0.1102905-0.0311279-0.1655273-0.0471191c-0.3809814-0.1103516-0.7694702-0.2004395-1.1671753-0.2609863  c-0.0389404-0.0059814-0.0785522-0.0087891-0.1176147-0.0141602C27.7939453,3.0355225,27.3677979,3,26.9345703,3  c-0.3035889,0-0.6032104,0.0166016-0.899292,0.0456543c-0.0992432,0.0095215-0.1956787,0.0280762-0.2940063,0.0410156  c-0.1947632,0.0253906-0.3893433,0.0511475-0.5801392,0.088623c-0.116394,0.0229492-0.2296753,0.0537109-0.3444824,0.0808105  c-0.1678467,0.039917-0.3353882,0.079834-0.4995117,0.1287842c-0.1220703,0.036377-0.2410889,0.0789795-0.3610229,0.1202393  c-0.1508179,0.052002-0.3009033,0.1047363-0.4480591,0.1643066c-0.1244507,0.0501709-0.2460938,0.1049805-0.3677979,0.1604004  c-0.1350708,0.0616455-0.2686768,0.1252441-0.4002075,0.1931152c-0.1258545,0.0649414-0.2493896,0.1328125-0.3718262,0.2032471  c-0.1190796,0.0687256-0.2359619,0.1400146-0.3516235,0.2138672c-0.1266479,0.0806885-0.2515259,0.1629639-0.3738403,0.2495117  c-0.1011353,0.0716553-0.1992798,0.1468506-0.2973022,0.2225342c-0.1287231,0.0991211-0.2562866,0.1988525-0.3794556,0.3044434  c-0.0787354,0.067627-0.1538696,0.138916-0.2302856,0.2092285c-0.1337891,0.1228027-0.2667847,0.2458496-0.3931274,0.3762207  c-0.0479736,0.0495605-0.0924072,0.1025391-0.1392212,0.1531982c-1.0402832,1.1226807-1.8013916,2.5021973-2.1796265,4.03479  c-0.010437,0.0419922-0.0224609,0.083252-0.0323486,0.1254883c-0.0491333,0.211792-0.0877075,0.4268799-0.1218262,0.644043  c-0.0078735,0.0494385-0.0206909,0.0970459-0.027771,0.1467285C17.3476562,10.8027344,16.8427734,10.75,16.3310547,10.75  c-4.0439453,0-7.3339844,3.2900391-7.3339844,7.3339844c0,0.4609375,0.0439453,0.9179688,0.1308594,1.3691406  C5.6650391,19.9667969,3,22.9589844,3,26.5625C3,30.5253906,6.2246094,33.75,10.1875,33.75z M10.1875,21.375h0.2441406  c0.3300781,0,0.6396484-0.1630859,0.8251953-0.4355469c0.1865234-0.2734375,0.2265625-0.6201172,0.1064453-0.9277344  c-0.2431641-0.6230469-0.3662109-1.2714844-0.3662109-1.9277344c0-2.9414062,2.3925781-5.3339844,5.3339844-5.3339844  c0.703125,0,1.3876953,0.1357422,2.0351562,0.4042969c0.3076172,0.1259766,0.6591797,0.0722656,0.9375-0.1142578  c0.1615601-0.1081543,0.2792969-0.2685547,0.3544922-0.4477539c0.0061646-0.013916,0.0101929-0.0280762,0.0158081-0.0422363  c0.0432129-0.1165771,0.0730591-0.2381592,0.0730591-0.3625488c0-3.9628906,3.2246094-7.1875,7.1875-7.1875  c3.1191406,0,5.8652344,1.9931641,6.8310547,4.9599609c0.041626,0.1279297,0.1079712,0.2407227,0.1907349,0.3374023  c0.0327759,0.0383301,0.0770264,0.0614014,0.1148071,0.0939941c0.0577393,0.0500488,0.1118774,0.1038818,0.1789551,0.1394043  c0.0452271,0.0239258,0.0960083,0.0310059,0.1444702,0.0478516c0.0708618,0.0247803,0.1394043,0.0529785,0.2146606,0.0612793  c0.0526733,0.0058594,0.1057739-0.0063477,0.1594849-0.0090332c0.0639648-0.0031738,0.1272583,0.0056152,0.1912231-0.0107422  C40.1357422,9.328125,44.75,13.2851562,44.75,18.25c0,0.6113281-0.0800781,1.2460938-0.2373047,1.8857422  c-0.0742188,0.2988281-0.0058594,0.6142578,0.1835938,0.8564453C44.8857422,21.2333984,45.1757812,21.375,45.4833984,21.375H45.8125  c2.8603516,0,5.1875,2.3271484,5.1875,5.1875S48.6728516,31.75,45.8125,31.75h-35.625C7.3271484,31.75,5,29.4228516,5,26.5625  S7.3271484,21.375,10.1875,21.375z"/><path d="M26.4228516,8.7451172c1.7792969,0,3.3447266,1.1367188,3.8964844,2.8300781  c0.1376953,0.421875,0.5302734,0.6894531,0.9511719,0.6894531c0.1025391,0,0.2070312-0.015625,0.3105469-0.0488281  c0.5244141-0.171875,0.8115234-0.7363281,0.640625-1.2617188c-0.8212891-2.5175781-3.1513672-4.2089844-5.7988281-4.2089844  c-0.5527344,0-1,0.4472656-1,1S25.8701172,8.7451172,26.4228516,8.7451172z"/><path d="M10.9648438,53c0.5527344,0,1-0.4472656,1-1V39.6210938l3.0888672,3.0888672  c0.1953125,0.1953125,0.4511719,0.2929688,0.7070312,0.2929688s0.5117188-0.0976562,0.7070312-0.2929688  c0.390625-0.390625,0.390625-1.0234375,0-1.4140625l-4.7946167-4.7946777  c-0.0924683-0.0927734-0.2034302-0.1662598-0.3265381-0.2172852c-0.2442627-0.1008301-0.5193481-0.1008301-0.7636108,0  c-0.1229858,0.0510254-0.2340088,0.1245117-0.3264771,0.2172852l-4.7946167,4.7946777  c-0.390625,0.390625-0.390625,1.0234375,0,1.4140625s1.0234375,0.390625,1.4140625,0l3.0888672-3.0888672V52  C9.9648438,52.5527344,10.4121094,53,10.9648438,53z"/><path d="M28,53c0.5527344,0,1-0.4472656,1-1V39.6210938l3.0888672,3.0888672  c0.1953125,0.1953125,0.4511719,0.2929688,0.7070312,0.2929688s0.5117188-0.0976562,0.7070312-0.2929688  c0.390625-0.390625,0.390625-1.0234375,0-1.4140625l-4.7946167-4.7946777  c-0.0924683-0.0927734-0.2034302-0.1662598-0.3265381-0.2172852c-0.2442627-0.1008301-0.5193481-0.1008301-0.7636108,0  c-0.1229858,0.0510254-0.2340088,0.1245117-0.3264771,0.2172852l-4.7946167,4.7946777  c-0.390625,0.390625-0.390625,1.0234375,0,1.4140625s1.0234375,0.390625,1.4140625,0L27,39.6210938V52  C27,52.5527344,27.4472656,53,28,53z"/><path d="M45.0351562,53c0.5527344,0,1-0.4472656,1-1V39.6210938l3.0888672,3.0888672  c0.1953125,0.1953125,0.4511719,0.2929688,0.7070312,0.2929688s0.5117188-0.0976562,0.7070312-0.2929688  c0.390625-0.390625,0.390625-1.0234375,0-1.4140625l-4.7946167-4.7946777  c-0.0924683-0.0927734-0.2034302-0.1662598-0.3265381-0.2172852c-0.2442627-0.1008301-0.5193481-0.1008301-0.7636108,0  c-0.1229858,0.0510254-0.2340088,0.1245117-0.3264771,0.2172852l-4.7946167,4.7946777  c-0.390625,0.390625-0.390625,1.0234375,0,1.4140625s1.0234375,0.390625,1.4140625,0l3.0888672-3.0888672V52  C44.0351562,52.5527344,44.4824219,53,45.0351562,53z"/></svg>