<svg xmlns="http://www.w3.org/2000/svg" xmlns:xlink="http://www.w3.org/1999/xlink" version="1.1" x="0px" y="0px" viewBox="0 0 56 56" xml:space="preserve"><path d="M45.4165039,17.0175781h-2.1171875c0.0224609-0.2216797,0.0341797-0.4443359,0.0341797-0.6669922  c0-3.7539062-3.190918-6.7666016-7.0146484-6.4785156C35.2270508,5.9433594,31.6630859,3.1835938,27.5,3.1835938  c-4.2880859,0-7.9101562,2.9130859-8.8999023,6.9599609c-0.6508789-0.1943359-1.3251953-0.2929688-2.0166016-0.2929688  C12.6777344,9.8505859,9.5,13.0283203,9.5,16.9335938c0,0.0537109,0.0004883,0.1074219,0.0019531,0.1611328  C5.8305664,17.6210938,3,20.7861328,3,24.6005859c0,4.1816406,3.4018555,7.5830078,7.5834961,7.5830078h34.8330078  C49.5981445,32.1835938,53,28.7822266,53,24.6005859S49.5981445,17.0175781,45.4165039,17.0175781z M45.4165039,30.1835938  H10.5834961C7.5048828,30.1835938,5,27.6787109,5,24.6005859s2.5048828-5.5830078,5.6015625-5.5830078  c0.2958984,0,0.5766602-0.1308594,0.7666016-0.3583984c0.1899414-0.2265625,0.2700195-0.5263672,0.2177734-0.8173828  C11.5283203,17.5175781,11.5,17.2207031,11.5,16.9335938c0-2.8027344,2.2802734-5.0830078,5.0834961-5.0830078  c0.8164062,0,1.6005859,0.1923828,2.3305664,0.5703125c0.2949219,0.1542969,0.6455078,0.1494141,0.9370117-0.0087891  s0.4858398-0.4501953,0.5185547-0.7802734C20.7353516,7.9560547,23.8007812,5.1835938,27.5,5.1835938  c3.515625,0,6.4853516,2.5185547,7.0605469,5.9873047c0.0449219,0.2744141,0.2021484,0.5166016,0.4331055,0.6699219  s0.5146484,0.2041016,0.7851562,0.1396484c0.3666992-0.0869141,0.7119141-0.1298828,1.0546875-0.1298828  c2.4814453,0,4.5,2.0185547,4.5,4.5c0,0.4619141-0.0712891,0.9208984-0.2119141,1.3642578  c-0.0966797,0.3046875-0.0419922,0.6357422,0.1459961,0.8935547c0.1884766,0.2568359,0.4882812,0.4091797,0.8071289,0.4091797  h3.3417969C48.4951172,19.0175781,51,21.5224609,51,24.6005859S48.4951172,30.1835938,45.4165039,30.1835938z"/><path d="M11.2885742,35.0556641c-0.5522461,0-1,0.4472656-1,1v13.3466797l-2.2900391-2.2900391  c-0.390625-0.390625-1.0234375-0.390625-1.4140625,0s-0.390625,1.0234375,0,1.4140625l3.9963989,3.9963379  c0.0923462,0.0925293,0.203064,0.1657715,0.3256836,0.2165527c0.1221924,0.0505371,0.2518311,0.0771484,0.382019,0.0771484  s0.2598267-0.0266113,0.382019-0.0771484c0.1226196-0.0507812,0.2333374-0.1240234,0.3256836-0.2165527l3.9963989-3.9963379  c0.390625-0.390625,0.390625-1.0234375,0-1.4140625s-1.0234375-0.390625-1.4140625,0l-2.2900391,2.2900391V36.0556641  C12.2885742,35.5029297,11.8408203,35.0556641,11.2885742,35.0556641z"/><path d="M28,35.0556641c-0.5522461,0-1,0.4472656-1,1v13.3466797l-2.2900391-2.2900391  c-0.390625-0.390625-1.0234375-0.390625-1.4140625,0s-0.390625,1.0234375,0,1.4140625l3.9963989,3.9963379  c0.0923462,0.0925293,0.203064,0.1657715,0.3256836,0.2165527C27.7401733,52.7897949,27.869812,52.8164062,28,52.8164062  s0.2598267-0.0266113,0.382019-0.0771484c0.1226196-0.0507812,0.2333374-0.1240234,0.3256836-0.2165527l3.9963989-3.9963379  c0.390625-0.390625,0.390625-1.0234375,0-1.4140625s-1.0234375-0.390625-1.4140625,0L29,49.4023438V36.0556641  C29,35.5029297,28.5522461,35.0556641,28,35.0556641z"/><path d="M44.7114258,35.0556641c-0.5522461,0-1,0.4472656-1,1v13.3466797l-2.2900391-2.2900391  c-0.390625-0.390625-1.0234375-0.390625-1.4140625,0s-0.390625,1.0234375,0,1.4140625l3.9963989,3.9963379  c0.0923462,0.0925293,0.203064,0.1657715,0.3256836,0.2165527c0.1221924,0.0505371,0.2518311,0.0771484,0.382019,0.0771484  s0.2598267-0.0266113,0.382019-0.0771484c0.1226196-0.0507812,0.2333374-0.1240234,0.3256836-0.2165527l3.9963989-3.9963379  c0.390625-0.390625,0.390625-1.0234375,0-1.4140625s-1.0234375-0.390625-1.4140625,0l-2.2900391,2.2900391V36.0556641  C45.7114258,35.5029297,45.2636719,35.0556641,44.7114258,35.0556641z"/><path d="M40.6875,26.6630859h-25.375c-0.5522461,0-1,0.4472656-1,1s0.4477539,1,1,1h25.375c0.5522461,0,1-0.4472656,1-1  S41.2397461,26.6630859,40.6875,26.6630859z"/></svg>