<svg xmlns="http://www.w3.org/2000/svg" data-name="Layer 1" viewBox="0 0 100 100" x="0px" y="0px"><path d="M95.27,51.234h1a1.234,1.234,0,0,0,0-2.467h-.99a2.7,2.7,0,0,1-2.682-2.3c-.009-.107-.024-.213-.034-.32A2.706,2.706,0,0,1,94.8,43.353l.973-.172a1.234,1.234,0,0,0,1.02-1.215,1.3,1.3,0,0,0-.018-.214,1.231,1.231,0,0,0-1.43-1l-.973.17a2.709,2.709,0,0,1-3.1-1.952l-.016-.06a2.71,2.71,0,0,1,1.693-3.231l.01,0,.934-.34a1.234,1.234,0,0,0-.846-2.318l-.927.337-.018.007a2.727,2.727,0,0,1-2.324-4.906c.012-.007.026-.014.038-.022h0l.84-.485.021-.013A1.234,1.234,0,0,0,89.452,25.8l-.86.5-.041.023a2.727,2.727,0,0,1-3.113-4.443c.012-.011.025-.021.039-.032l.759-.637a1.234,1.234,0,0,0-1.586-1.891l-.765.641-.033.028a2.709,2.709,0,0,1-3.609-.165c-.02-.02-.041-.039-.06-.059a2.709,2.709,0,0,1-.176-3.6c.014-.017.029-.033.042-.05l.636-.759a1.233,1.233,0,0,0-1.89-1.585l-.639.759c-.014.016-.026.032-.039.048a2.707,2.707,0,0,1-3.5.5c-.092-.064-.18-.134-.272-.2a2.7,2.7,0,0,1-.673-3.416c.009-.016.02-.031.029-.048l.495-.861h0a1.234,1.234,0,0,0-2.138-1.234l-.5.859-.032.052A2.726,2.726,0,0,1,66.644,7.88l.34-.935A1.234,1.234,0,1,0,64.665,6.1l-.342.939a2.7,2.7,0,0,1-3.236,1.706l-.031-.01-.03-.007A2.709,2.709,0,0,1,59.065,5.7c.005-.021.008-.042.012-.063l.172-.979v0a1.234,1.234,0,0,0-2.431-.43l-.174.985c0,.021-.006.04-.011.061a2.711,2.711,0,0,1-2.909,2.179h-.01A2.712,2.712,0,0,1,51.233,4.73v-1a1.233,1.233,0,0,0-2.466,0v.989A2.705,2.705,0,0,1,46.44,7.409c-.093.008-.185.021-.278.03a2.719,2.719,0,0,1-2.8-2.222l0-.022-.167-.946,0-.028a1.234,1.234,0,0,0-2.431.429l.172.974,0,.022a2.715,2.715,0,0,1-1.963,3.079l-.045.011A2.712,2.712,0,0,1,35.674,7.03L35.335,6.1a1.234,1.234,0,0,0-2.319.845l.34.933a2.727,2.727,0,0,1-4.924,2.3l-.5-.86A1.234,1.234,0,1,0,25.8,10.549l.5.862a2.728,2.728,0,0,1-4.441,3.13.08.08,0,0,0-.015-.017l-.628-.749-.009-.01a1.234,1.234,0,1,0-1.89,1.586l.641.763.009.012a2.726,2.726,0,0,1-3.854,3.826l-.759-.637a1.234,1.234,0,0,0-1.587,1.891l.759.637a2.727,2.727,0,0,1-3.086,4.468c-.009,0-.017-.01-.026-.015l-.861-.5a1.234,1.234,0,0,0-1.235,2.137l.858.5.032.019a2.727,2.727,0,0,1-2.324,4.907l-.935-.341A1.234,1.234,0,1,0,6.1,35.335l.938.343a2.726,2.726,0,0,1-1.407,5.246l-.976-.172H4.651a1.234,1.234,0,0,0-.43,2.43l.982.174a2.727,2.727,0,0,1-.473,5.412h-1a1.234,1.234,0,0,0,0,2.467h.99A2.728,2.728,0,0,1,5.2,56.648l-.973.172A1.233,1.233,0,0,0,3.2,58.035a1.306,1.306,0,0,0,.018.214,1.233,1.233,0,0,0,1.43,1l.973-.171h0a2.727,2.727,0,0,1,1.4,5.249l-.928.338a1.234,1.234,0,0,0,.845,2.319l.934-.34a2.728,2.728,0,0,1,2.336,4.9l-.04.021-.86.5h0A1.234,1.234,0,0,0,10.548,74.2l.86-.5.041-.023a2.727,2.727,0,0,1,3.113,4.443l-.039.032-.759.637a1.234,1.234,0,0,0,1.586,1.891l.765-.641c.01-.009.021-.019.033-.028a2.727,2.727,0,0,1,3.8,3.873l-.634.757,0,0a1.234,1.234,0,0,0,1.89,1.586l.637-.758a2.728,2.728,0,0,1,4.476,3.076l-.023.037-.5.86,0,0a1.234,1.234,0,0,0,2.138,1.233l.5-.859a.423.423,0,0,0,.024-.04,2.727,2.727,0,0,1,4.9,2.333l-.34.936a1.234,1.234,0,0,0,2.319.844l.342-.94A2.727,2.727,0,0,1,40.935,94.3c-.005.022-.008.043-.012.064l-.172.978v0a1.234,1.234,0,0,0,2.431.429l.174-.986a.559.559,0,0,1,.011-.059,2.727,2.727,0,0,1,5.4.536v1a1.233,1.233,0,0,0,2.466,0v-.988a2.727,2.727,0,0,1,5.413-.475l.172.975a1.234,1.234,0,0,0,2.449-.214,1.3,1.3,0,0,0-.018-.214l-.172-.975a2.728,2.728,0,0,1,5.249-1.406l.339.927v0a1.234,1.234,0,0,0,2.319-.845l-.34-.934A2.727,2.727,0,0,1,71.555,89.8l.012.021.5.859,0,0A1.234,1.234,0,0,0,74.2,89.451l-.495-.859a.128.128,0,0,1-.015-.025,2.726,2.726,0,0,1,4.464-3.092l.641.763a1.234,1.234,0,0,0,1.89-1.588l-.637-.76a2.706,2.706,0,0,1,.117-3.629l.089-.09a2.707,2.707,0,0,1,3.635-.123l.759.637a1.234,1.234,0,0,0,1.587-1.89l-.759-.637a2.706,2.706,0,0,1-.56-3.518c.074-.1.152-.2.224-.308a2.7,2.7,0,0,1,3.422-.642.174.174,0,0,1,.026.015l.835.482.026.015a1.234,1.234,0,0,0,1.235-2.136l-.858-.5-.031-.018a2.711,2.711,0,0,1-1.083-3.491l0-.009a2.706,2.706,0,0,1,3.4-1.408l.915.333.02.007a1.233,1.233,0,1,0,.843-2.318l-.938-.343a2.709,2.709,0,0,1-1.712-3.2c0-.021.012-.041.018-.062s.01-.042.015-.063a2.707,2.707,0,0,1,3.059-1.924l.028.005.981.173a1.233,1.233,0,1,0,.431-2.429l-.985-.175-.026,0a2.71,2.71,0,0,1-2.214-2.9l0-.038A2.71,2.71,0,0,1,95.27,51.234Zm-6.395,9.185c0,.015,0,.031-.008.046a40.661,40.661,0,0,1-2.386,6.543l0,.007,0,.007A39.969,39.969,0,0,1,83.1,72.943c-.04.053-.089.094-.128.149-.025.036-.039.077-.064.114a39.7,39.7,0,0,1-4.4,5.222c-.013.013-.028.021-.041.034s-.024.032-.039.047A40.264,40.264,0,0,1,30.96,85.445l6.805-11.786v0l.88-1.52.022-.04a2.037,2.037,0,0,1,3.71,1.584l-.455,1.7a1.211,1.211,0,0,0-.042.319,1.233,1.233,0,0,0,2.425.319l.454-1.7a2.041,2.041,0,0,1,2.215-1.492l.048.008a2.042,2.042,0,0,1,1.744,2.011V76.6a1.233,1.233,0,0,0,2.466,0V74.85a2.04,2.04,0,0,1,1.723-2l.106-.013a2.043,2.043,0,0,1,2.178,1.491l.454,1.693a1.234,1.234,0,0,0,2.383-.64l-.455-1.694a2.042,2.042,0,0,1,1.165-2.4l.042-.019a2.047,2.047,0,0,1,2.5.816q.014.026.03.051l.878,1.52a1.233,1.233,0,0,0,2.137-1.232L63.493,70.9c-.009-.018-.02-.034-.03-.051a2.038,2.038,0,0,1,3.208-2.435l.027.028,1.241,1.241a1.234,1.234,0,1,0,1.744-1.745L68.442,66.7l-.026-.026a2.038,2.038,0,0,1,2.472-3.187l.013.008,1.523.878a1.233,1.233,0,1,0,1.232-2.137l-1.52-.878-.015-.008a2.038,2.038,0,0,1,1.559-3.725l1.7.455a1.234,1.234,0,0,0,.639-2.383l-1.7-.456a2.037,2.037,0,0,1,.527-4H90.238q-.036,1.125-.138,2.251l0,.019a.121.121,0,0,1,0,.019,40.722,40.722,0,0,1-1.2,6.851C88.887,60.389,88.879,60.4,88.875,60.419Zm-49.289-49.3c.034-.009.063-.027.1-.037A39.732,39.732,0,0,1,49.934,9.732a40.493,40.493,0,0,1,10.452,1.381c.011,0,.02.009.031.012s.024,0,.035.006a40.258,40.258,0,0,1,12.5,5.781c.048.036.085.081.135.116.033.023.07.036.1.058a39.757,39.757,0,0,1,5.24,4.416c.01.01.017.023.027.033s.026.019.038.031A40.441,40.441,0,0,1,88.88,39.555c0,.01,0,.02.005.029s.007.015.009.023A39.771,39.771,0,0,1,90.1,46.374c0,.039,0,.076,0,.115,0,.058.025.111.032.169.058.7.095,1.4.116,2.109H74.85a2.038,2.038,0,0,1-.528-4.006l1.694-.454a1.234,1.234,0,0,0-.639-2.384l-1.7.454A2.037,2.037,0,0,1,72.1,38.666l.037-.021,1.52-.878a1.234,1.234,0,0,0-1.235-2.137l-1.52.877-.036.022A2.037,2.037,0,0,1,68.443,33.3l1.241-1.242a1.234,1.234,0,0,0-1.745-1.745L66.7,31.558a2.039,2.039,0,0,1-3.234-2.411c.009-.016.018-.031.029-.047L64.36,27.6l.011-.017a1.234,1.234,0,1,0-2.137-1.234l-.88,1.52-.027.049a2.038,2.038,0,0,1-3.7-1.594l.455-1.7a1.211,1.211,0,0,0,.042-.319,1.234,1.234,0,0,0-2.425-.32l-.454,1.7a2.038,2.038,0,0,1-4.007-.527V23.4a1.233,1.233,0,1,0-2.466,0v1.754a2.038,2.038,0,0,1-4.007.526l-.454-1.692h0a1.234,1.234,0,1,0-2.383.639l.455,1.7a2.038,2.038,0,0,1-3.708,1.589l-.026-.043-.878-1.521h0l-6.8-11.783A40.387,40.387,0,0,1,39.5,11.129C39.529,11.122,39.557,11.122,39.586,11.115Zm13.1,59.269c-.023,0-.044.011-.066.014a20.544,20.544,0,0,1-7.939-.54,20.769,20.769,0,0,1-3.873-1.467L49.33,53.628a3.773,3.773,0,0,0,.681.09,3.665,3.665,0,0,0,3.471-2.484H70.506A20.557,20.557,0,0,1,52.751,70.381C52.729,70.383,52.707,70.381,52.684,70.384ZM15.14,70.128A40.3,40.3,0,0,1,28.822,15.786l6.806,11.789v0l.878,1.522.026.044A2.038,2.038,0,0,1,33.3,31.558l-1.239-1.241h0a1.234,1.234,0,1,0-1.745,1.744L31.557,33.3a2.041,2.041,0,0,1,.2,2.636l-.061.08a2.04,2.04,0,0,1-2.556.513l-.04-.023-1.523-.878a1.234,1.234,0,0,0-1.233,2.137l1.521.878.042.024a2.038,2.038,0,0,1-1.587,3.709l-1.7-.455a1.236,1.236,0,0,0-1.511.872,1.213,1.213,0,0,0-.042.32,1.233,1.233,0,0,0,.914,1.191l1.7.455a2.038,2.038,0,0,1-.527,4.006H23.4a1.234,1.234,0,1,0,0,2.467H25.15a2.04,2.04,0,0,1,2.006,1.726l.012.1a2.04,2.04,0,0,1-1.461,2.177l-.027.006-1.7.454a1.235,1.235,0,0,0,.639,2.385l1.694-.455.03-.007A2.037,2.037,0,0,1,27.9,61.334l-.037.021-1.52.879a1.234,1.234,0,0,0,1.235,2.137l1.52-.878.036-.021A2.038,2.038,0,0,1,31.558,66.7L30.317,67.94a1.234,1.234,0,0,0,1.744,1.745L33.3,68.443a2.039,2.039,0,0,1,2.635-.2l.082.063a2.041,2.041,0,0,1,.513,2.555l-.02.033,0,.007-.874,1.512,0,.008-6.811,11.8A40.011,40.011,0,0,1,15.14,70.128ZM53.484,48.767a3.709,3.709,0,0,0-.275-.6,3.66,3.66,0,0,0-3.872-1.778L40.81,31.617A20.506,20.506,0,0,1,70.5,48.767ZM37.54,66.361c-.021-.016-.036-.036-.057-.052s-.043-.025-.063-.04a20.664,20.664,0,0,1-7.8-13.516c0-.023,0-.045,0-.068s-.012-.045-.015-.068a20.65,20.65,0,0,1,4.039-15.079c.015-.019.035-.034.05-.054s.024-.041.039-.061a20.457,20.457,0,0,1,4.953-4.557L47.2,47.618a3.652,3.652,0,0,0-.014,4.789l-8.511,14.74C38.291,66.894,37.906,66.64,37.54,66.361ZM49.685,51.207a1.22,1.22,0,0,1-.748-.576,1.231,1.231,0,0,1,.449-1.683l0,0A1.228,1.228,0,0,1,50,48.781a1.271,1.271,0,0,1,.322.042,1.221,1.221,0,0,1,.747.575h0a1.234,1.234,0,0,1-1.389,1.808Z"/></svg>